<svg xmlns="http://www.w3.org/2000/svg" viewBox="0 0 553.28 141.77"><defs><style>.cls-1{fill:#4a5158;}.cls-2{fill:none;stroke:#495057;}</style></defs><title>logo_gray</title><g id="圖層_1" data-name="圖層 1"><path class="cls-1" d="M0,76.17l19.26-1.8q1.78,9.7,7.09,14.28t14.42,4.53c6.39,0,11.21-1.37,14.48-4.05s4.84-5.88,4.84-9.46a9.15,9.15,0,0,0-2-6c-1.37-1.6-3.74-3.05-7.13-4.2-2.34-.89-7.63-2.31-15.87-4.41C24.42,62.45,17,59.18,12.71,55.33A26,26,0,0,1,3.65,35.39a25,25,0,0,1,4.27-14.1A26.77,26.77,0,0,1,20.23,11.23C25.57,9,32,7.83,39.61,7.83Q58.1,7.83,67.48,16c6.24,5.53,9.5,12.78,9.81,21.88l-19.94.67c-.88-5-2.65-8.63-5.47-10.87s-7-3.34-12.51-3.34c-5.76,0-10.28,1.18-13.52,3.6A7.14,7.14,0,0,0,22.69,34a7.52,7.52,0,0,0,2.95,6c2.48,2.16,8.58,4.35,18.23,6.6s16.79,4.68,21.4,7.14a27.66,27.66,0,0,1,10.87,10.1c2.59,4.17,3.94,9.51,3.94,15.78a29.19,29.19,0,0,1-4.72,15.91,28.48,28.48,0,0,1-13.3,11.05c-5.74,2.35-12.88,3.61-21.43,3.61-12.45,0-22-2.91-28.7-8.73S1.3,87.22,0,76.17Z"/><path class="cls-1" d="M77.56,36.72h20l17.08,50.85,16.64-50.85h19.49l-25,68.86-4.59,12.56a50.58,50.58,0,0,1-4.72,9.56,19.75,19.75,0,0,1-5.16,5.4,24.18,24.18,0,0,1-7.16,3.18,36.79,36.79,0,0,1-9.65,1.21,49.5,49.5,0,0,1-10.69-1.21l-1.56-14.87a38.76,38.76,0,0,0,8,.93c4.35,0,7.59-1.28,9.68-3.85a27.63,27.63,0,0,0,4.82-9.95Z"/><path class="cls-1" d="M216.32,108.35H197.5V71.89c0-7.68-.39-12.63-1.22-14.92a10.48,10.48,0,0,0-4-5.28,11.49,11.49,0,0,0-6.61-1.88,15.4,15.4,0,0,0-8.89,2.72,13.43,13.43,0,0,0-5.4,7.06c-1,3-1.46,8.42-1.46,16.44v32.33H151.18V36.72h17.4V47.21c6.26-7.93,14.12-11.85,23.61-11.85a29.68,29.68,0,0,1,11.5,2.21,19.14,19.14,0,0,1,7.86,5.78,21.23,21.23,0,0,1,3.71,7.92A58.31,58.31,0,0,1,216.32,64Z"/><path class="cls-1" d="M216.43,71.78a38.84,38.84,0,0,1,4.66-18.3A32.12,32.12,0,0,1,234.26,40a39,39,0,0,1,19-4.62q16.28,0,26.61,10.54t10.4,26.65c0,10.83-3.51,19.77-10.49,26.92s-15.8,10.71-26.4,10.71a41.76,41.76,0,0,1-18.77-4.47,30.41,30.41,0,0,1-13.57-13.07Q216.45,84.1,216.43,71.78Zm19.27,1c0,7.15,1.67,12.61,5.08,16.32a16.52,16.52,0,0,0,25,0c3.33-3.71,5-9.24,5-16.41s-1.67-12.49-5-16.23a16.6,16.6,0,0,0-25,0C237.38,60.16,235.7,65.63,235.7,72.73Z"/><path class="cls-1" d="M313.42,0V92.47c0,4.41.33,7.33.94,8.73a6.7,6.7,0,0,0,2.93,3.27c1.33.74,3.8,1.12,7.36,1.12v2.77H290.48v-2.77c3.2,0,5.38-.33,6.61-1a6.8,6.8,0,0,0,2.71-3.28c.67-1.51,1-4.45,1-8.8V29.37c0-7.94-.16-12.8-.5-14.63A6.23,6.23,0,0,0,298.61,11,4.26,4.26,0,0,0,295.7,10a14.43,14.43,0,0,0-4.88,1.24l-1.3-2.71L310,0Z"/><path class="cls-1" d="M358.57,36.49c10.6,0,19.08,4,25.5,12a36.8,36.8,0,0,1,8.16,23.57A44,44,0,0,1,387.74,91a32.05,32.05,0,0,1-30,19.33q-15.84,0-25.12-12.54a38.85,38.85,0,0,1-7.86-23.76,41.85,41.85,0,0,1,4.75-19A33.1,33.1,0,0,1,342.11,41,32.62,32.62,0,0,1,358.57,36.49Zm-2.34,5.13A15.44,15.44,0,0,0,348.12,44c-2.72,1.62-4.93,4.37-6.61,8.33S339,61.45,339,67.73c0,10.14,2.05,18.79,6.06,26.19s9.36,11,15.95,11a14.89,14.89,0,0,0,12.18-6.08Q378,92.76,378,77.94c0-12.37-2.67-22-8-29.14C366.4,44,361.81,41.62,356.24,41.62Z"/><path class="cls-1" d="M407.52,82.78A23.77,23.77,0,0,1,402.11,44q7.79-7.45,20-7.47a30.13,30.13,0,0,1,17.22,4.82H454a19.57,19.57,0,0,1,3.83.2,2,2,0,0,1,.74.65,4.92,4.92,0,0,1,.46,2.43,6.71,6.71,0,0,1-.39,2.77,1.31,1.31,0,0,1-.81.59,17.09,17.09,0,0,1-3.85.22h-9.09c2.88,3.67,4.3,8.36,4.3,14.06a22.05,22.05,0,0,1-7.46,16.67c-5,4.62-11.62,7-19.94,7a35.11,35.11,0,0,1-10.58-1.64A20.16,20.16,0,0,0,407,89.32,8.39,8.39,0,0,0,405.81,93a3.55,3.55,0,0,0,1.28,2.58c.81.79,2.47,1.39,4.9,1.71a97.77,97.77,0,0,0,10.62.62c10.42.33,17.19.72,20.24,1.25a19.27,19.27,0,0,1,11.31,5.22,14.13,14.13,0,0,1,4.21,10.38c0,5.65-2.7,11-8.06,16q-11.77,11-30.83,11c-9.75,0-18-2.15-24.72-6.56-3.8-2.54-5.67-5.14-5.67-7.9a9.32,9.32,0,0,1,.79-3.63,42.19,42.19,0,0,1,5.21-7.76c.34-.48,2.9-3.2,7.6-8.18a24.06,24.06,0,0,1-5.54-4.31,6.32,6.32,0,0,1-1.64-4.24,12.53,12.53,0,0,1,2.12-6.25C399.07,90.51,402.37,87.1,407.52,82.78Zm-.63,25.57a35,35,0,0,0-5.25,7.2,12.37,12.37,0,0,0-1.76,6c0,2.49,1.44,4.58,4.37,6.39,5.07,3.1,12.4,4.71,22,4.71,9.1,0,15.79-1.61,20.15-4.81s6.5-6.57,6.5-10.19a5.74,5.74,0,0,0-3.89-5.56c-2.65-1.12-7.86-1.77-15.71-1.93C421.83,109.84,413,109.17,406.89,108.35Zm13.9-68a11.9,11.9,0,0,0-9.38,4.54c-2.51,3-3.76,7.43-3.76,13.6q0,11.93,5.13,18.52a12.2,12.2,0,0,0,10,5,11.89,11.89,0,0,0,9.44-4.34c2.47-2.87,3.69-7.35,3.69-13.46,0-8-1.71-14.29-5.18-18.81A12.17,12.17,0,0,0,420.79,40.34Z"/><path class="cls-1" d="M461.21,38.53h32.63v2.79h-1.58a8,8,0,0,0-5.16,1.48,4.76,4.76,0,0,0-1.69,3.68c0,2,.81,4.74,2.51,8.23l17,35.29L520.5,51.44a16.29,16.29,0,0,0,1.3-6.26,3.41,3.41,0,0,0-.54-2,4,4,0,0,0-1.91-1.32,13.61,13.61,0,0,0-4.55-.54V38.53h22.56v2.79A10.86,10.86,0,0,0,533,42.54a12.74,12.74,0,0,0-3.35,3.38,41,41,0,0,0-2.61,5.85l-28.27,69.54c-2.76,6.78-6.36,11.85-10.83,15.31s-8.76,5.14-12.9,5.14a10.56,10.56,0,0,1-7.43-2.58,7.71,7.71,0,0,1-2.9-5.93,6.6,6.6,0,0,1,2.1-5.08,8,8,0,0,1,5.8-1.94,21.36,21.36,0,0,1,6.91,1.63,20.38,20.38,0,0,0,3.85,1.14c1.53,0,3.17-.83,5-2.39s3.61-4.59,5.44-9.06l4.93-12.15-25.1-52.47A44.9,44.9,0,0,0,470,47.06a19.63,19.63,0,0,0-3.13-3.62,19.1,19.1,0,0,0-5.65-2.12Z"/><path class="cls-1" d="M537.23,33.9v-14h6.13a7.2,7.2,0,0,1,2.84.45,3,3,0,0,1,1.53,1.26,4.13,4.13,0,0,1,.57,2.11,3.31,3.31,0,0,1-1,2.5,4.59,4.59,0,0,1-2.93,1.33,4.62,4.62,0,0,1,1.1.68A9.21,9.21,0,0,1,547,30.08l2.43,3.82h-2.29L545.31,31c-.54-.79-1-1.47-1.33-1.91a6.22,6.22,0,0,0-.93-1,3.17,3.17,0,0,0-.83-.32,4.17,4.17,0,0,0-1-.09h-2.1V33.9Zm1.84-7.77H543a4.47,4.47,0,0,0,2-.29A1.78,1.78,0,0,0,546,25a2.2,2.2,0,0,0,.38-1.28,2,2,0,0,0-.72-1.6,3.3,3.3,0,0,0-2.23-.63h-4.41Z"/><path class="cls-2" d="M552.78,26.39a10.11,10.11,0,1,1-10.1-10.11A10.16,10.16,0,0,1,552.78,26.39Z"/></g></svg>